<mxfile host="app.diagrams.net" modified="2021-07-24T08:31:05.692Z" agent="5.0 (Windows NT 10.0; Win64; x64) AppleWebKit/537.36 (KHTML, like Gecko) Chrome/90.0.4430.212 Safari/537.36" etag="r89MptVQJXhH9CRXPdRu" version="14.9.2" type="github">
  <diagram id="RZ4EqWWF7a2_vQTNn12y" name="Page-1">
    <mxGraphModel dx="868" dy="460" grid="1" gridSize="10" guides="1" tooltips="1" connect="1" arrows="1" fold="1" page="1" pageScale="1" pageWidth="827" pageHeight="1169" math="0" shadow="0">
      <root>
        <mxCell id="0" />
        <mxCell id="1" parent="0" />
        <mxCell id="26B25eceT9oUSiCysMVx-6" value="Kelola Retail" style="edgeStyle=orthogonalEdgeStyle;rounded=0;orthogonalLoop=1;jettySize=auto;html=1;exitX=1;exitY=0.5;exitDx=0;exitDy=0;entryX=0;entryY=0.5;entryDx=0;entryDy=0;startArrow=classic;startFill=1;endArrow=none;endFill=0;" edge="1" parent="1" source="26B25eceT9oUSiCysMVx-1" target="26B25eceT9oUSiCysMVx-4">
          <mxGeometry relative="1" as="geometry" />
        </mxCell>
        <mxCell id="26B25eceT9oUSiCysMVx-7" value="Invoice" style="edgeStyle=orthogonalEdgeStyle;rounded=0;orthogonalLoop=1;jettySize=auto;html=1;exitX=0.5;exitY=1;exitDx=0;exitDy=0;entryX=0.5;entryY=1;entryDx=0;entryDy=0;" edge="1" parent="1" source="26B25eceT9oUSiCysMVx-1" target="26B25eceT9oUSiCysMVx-2">
          <mxGeometry x="-0.1679" relative="1" as="geometry">
            <mxPoint as="offset" />
          </mxGeometry>
        </mxCell>
        <mxCell id="26B25eceT9oUSiCysMVx-9" value="Laporan Order" style="edgeStyle=orthogonalEdgeStyle;rounded=0;orthogonalLoop=1;jettySize=auto;html=1;exitX=1;exitY=0;exitDx=0;exitDy=0;entryX=0.5;entryY=0;entryDx=0;entryDy=0;" edge="1" parent="1" source="26B25eceT9oUSiCysMVx-1" target="26B25eceT9oUSiCysMVx-4">
          <mxGeometry relative="1" as="geometry">
            <Array as="points">
              <mxPoint x="590" y="72" />
            </Array>
          </mxGeometry>
        </mxCell>
        <mxCell id="26B25eceT9oUSiCysMVx-1" value="&lt;b&gt;Transaksi&lt;br&gt;&lt;/b&gt;" style="ellipse;whiteSpace=wrap;html=1;aspect=fixed;" vertex="1" parent="1">
          <mxGeometry x="334" y="60" width="80" height="80" as="geometry" />
        </mxCell>
        <mxCell id="26B25eceT9oUSiCysMVx-5" value="Order" style="edgeStyle=orthogonalEdgeStyle;rounded=0;orthogonalLoop=1;jettySize=auto;html=1;exitX=1;exitY=0.5;exitDx=0;exitDy=0;entryX=0;entryY=0.5;entryDx=0;entryDy=0;" edge="1" parent="1" source="26B25eceT9oUSiCysMVx-2" target="26B25eceT9oUSiCysMVx-1">
          <mxGeometry x="0.0526" relative="1" as="geometry">
            <mxPoint as="offset" />
          </mxGeometry>
        </mxCell>
        <mxCell id="26B25eceT9oUSiCysMVx-8" value="Detail Produk" style="edgeStyle=orthogonalEdgeStyle;rounded=0;orthogonalLoop=1;jettySize=auto;html=1;exitX=0.5;exitY=0;exitDx=0;exitDy=0;entryX=0.5;entryY=0;entryDx=0;entryDy=0;" edge="1" parent="1" source="26B25eceT9oUSiCysMVx-2" target="26B25eceT9oUSiCysMVx-1">
          <mxGeometry x="0.1679" relative="1" as="geometry">
            <mxPoint as="offset" />
          </mxGeometry>
        </mxCell>
        <mxCell id="26B25eceT9oUSiCysMVx-2" value="Customer" style="rounded=0;whiteSpace=wrap;html=1;" vertex="1" parent="1">
          <mxGeometry x="120" y="90" width="100" height="20" as="geometry" />
        </mxCell>
        <mxCell id="26B25eceT9oUSiCysMVx-13" style="edgeStyle=orthogonalEdgeStyle;rounded=0;orthogonalLoop=1;jettySize=auto;html=1;exitX=0.5;exitY=1;exitDx=0;exitDy=0;entryX=1;entryY=1;entryDx=0;entryDy=0;startArrow=classic;startFill=1;endArrow=none;endFill=0;" edge="1" parent="1" source="26B25eceT9oUSiCysMVx-4" target="26B25eceT9oUSiCysMVx-1">
          <mxGeometry relative="1" as="geometry" />
        </mxCell>
        <mxCell id="26B25eceT9oUSiCysMVx-14" value="Laporan Pembayaran" style="edgeLabel;html=1;align=center;verticalAlign=middle;resizable=0;points=[];" vertex="1" connectable="0" parent="26B25eceT9oUSiCysMVx-13">
          <mxGeometry x="0.1556" relative="1" as="geometry">
            <mxPoint as="offset" />
          </mxGeometry>
        </mxCell>
        <mxCell id="26B25eceT9oUSiCysMVx-4" value="Petugas" style="rounded=0;whiteSpace=wrap;html=1;" vertex="1" parent="1">
          <mxGeometry x="540" y="90" width="100" height="20" as="geometry" />
        </mxCell>
      </root>
    </mxGraphModel>
  </diagram>
</mxfile>
